<?xml version="1.0" encoding="UTF-8" standalone="no"?>
<svg
   xmlns:dc="http://purl.org/dc/elements/1.1/"
   xmlns:cc="http://creativecommons.org/ns#"
   xmlns:rdf="http://www.w3.org/1999/02/22-rdf-syntax-ns#"
   xmlns:svg="http://www.w3.org/2000/svg"
   xmlns="http://www.w3.org/2000/svg"
   xmlns:sodipodi="http://sodipodi.sourceforge.net/DTD/sodipodi-0.dtd"
   xmlns:inkscape="http://www.inkscape.org/namespaces/inkscape"
   width="85.295212mm"
   height="15.368595mm"
   viewBox="0 0 85.295212 15.368595"
   version="1.1"
   id="svg8"
   sodipodi:docname="Rossdale2.svg">
  <g
     inkscape:label="Layer 1"
     inkscape:groupmode="layer"
     id="layer1"
     transform="translate(-11.825045,-2.0183102)"
     style="display:inline">
    <g
       id="g33"
       transform="matrix(0.89090674,0,0,0.89090674,3.0272846,1.3758316)"
       style="fill:#3399aa;fill-opacity:1">
      <g
         aria-label="R
"
         id="text12"
         style="font-size:21.1667px;line-height:1.25;font-family:'Lucida Bright';-inkscape-font-specification:'Lucida Bright, Italic';font-variant-ligatures:normal;font-variant-caps:normal;font-variant-numeric:normal;font-variant-east-asian:normal;text-align:start;letter-spacing:0px;word-spacing:0px;writing-mode:lr-tb;text-anchor:start;fill:#3399aa;fill-opacity:1;stroke:none;stroke-width:0.264583">
        <path
           d="M 22.356719,17.386906 19.049422,10.1832 h -1.71566 l -0.899172,4.526862 q -0.165365,0.847495 -0.165365,1.477949 0,0.330729 0.186036,0.403076 0.196371,0.07235 1.302248,0.144695 l 0.186035,0.01034 -0.124023,0.640789 h -5.994476 l 0.124024,-0.640789 0.19637,-0.01034 q 1.291913,-0.08268 1.560631,-0.351401 0.279053,-0.268718 0.568442,-1.674319 l 1.974043,-9.9425612 q 0.165365,-0.8578301 0.165365,-1.4779483 0,-0.3307297 -0.196371,-0.4030768 -0.186036,-0.072347 -1.281578,-0.1446943 l -0.19637,-0.020671 0.134358,-0.6304534 h 3.617356 L 21.457547,2.01831 q 1.963708,0 2.935226,0.7544772 0.981854,0.7441418 0.981854,2.253096 0,1.5813013 -1.136883,2.9042201 -1.136883,1.3229188 -3.07992,2.0153841 l 2.346113,4.8059156 q 0.764813,1.426272 1.033531,1.674319 0.268718,0.248048 1.136883,0.31006 l 0.186035,0.01034 -0.124023,0.640789 z m -4.888599,-7.8858365 0.868166,0.010335 q 2.160078,0 3.451991,-1.1885599 1.302248,-1.1988951 1.302248,-3.1832733 0,-1.1782245 -0.744142,-1.7673368 Q 21.612577,2.7831227 20.134629,2.7831227 H 18.81171 Z"
           style="font-size:21.1667px;font-family:'Lucida Bright';-inkscape-font-specification:'Lucida Bright, Italic';font-variant-ligatures:normal;font-variant-caps:normal;font-variant-numeric:normal;font-variant-east-asian:normal;fill:#3399aa;stroke-width:0.264583;fill-opacity:1"
           id="path2021" />
      </g>
      <g
         aria-label="T"
         id="text18"
         style="font-size:21.1667px;line-height:1.25;font-family:'Calisto MT';-inkscape-font-specification:'Calisto MT, Italic';font-variant-ligatures:normal;font-variant-caps:normal;font-variant-numeric:normal;font-variant-east-asian:normal;text-align:start;letter-spacing:0px;word-spacing:0px;writing-mode:lr-tb;text-anchor:start;fill:#3399aa;fill-opacity:1;stroke:none;stroke-width:0.264583">
        <path
           d="m 75.773092,6.4573231 h -0.723471 q 0,-0.031006 0.01033,-0.3824062 0.02067,-0.3617356 0.09302,-1.7570015 0.04134,-0.5064298 -0.27905,-0.6201181 Q 74.553526,3.5737736 73.613014,3.5737736 H 71.28757 q -0.01033,0.062012 -0.113688,0.3927415 -0.103353,0.3307297 -0.124024,0.4134121 -0.124023,0.4547534 -0.382406,1.3229188 -0.248047,0.8681655 -0.423747,1.4572777 -0.165365,0.578777 -0.403077,1.4056012 -0.227377,0.8268243 -0.382406,1.3745953 -1.209231,4.3614978 -1.457278,5.3123458 -0.04134,0.134359 -0.04134,0.361736 0,0.19637 0.124024,0.258382 0.217041,0.134359 1.508954,0.320394 0.465088,0.103354 0.547771,0.103354 l -0.165365,0.609782 q -0.50643,-0.03101 -1.405601,-0.06201 -1.054201,-0.04134 -1.705325,-0.04134 -1.03353,0 -3.493333,0.103353 l 0.165365,-0.609782 q 0.03101,0 0.08268,-0.01034 0.06201,-0.02067 0.124023,-0.03101 0.07235,-0.01033 0.15503,-0.02067 0.09302,-0.02067 0.124023,-0.02067 1.34359,-0.217041 1.591637,-0.403077 0.454753,-0.382406 1.136883,-2.883549 0.07235,-0.310059 0.578777,-1.922367 0.09302,-0.330729 0.186036,-0.640788 0.103353,-0.320395 0.144694,-0.5064302 L 68.60039,6.6020134 q 0.475424,-1.6329779 0.85783,-3.0282438 h -2.325443 q -0.744142,0 -1.105878,0.082682 -0.3514,0.072347 -0.589112,0.3617356 -0.237712,0.2790532 -0.5271,0.9715185 l -0.609783,1.467613 h -0.74414 Q 64.0942,4.4832803 64.4456,2.4989021 q 0.392741,0 0.713136,0.010335 0.33073,0.010335 0.878501,0.020671 0.547771,0.010335 1.374595,0.031006 1.881025,0.062012 2.893885,0.062012 0.651124,0 3.048914,-0.041341 l 3.41065,-0.082682 Q 76.372539,3.7391385 76.21751,4.4419391 76.093486,5.020716 75.959127,5.6201636 75.824768,6.2092759 75.773092,6.4573231 Z"
           style="font-size:21.1667px;font-family:'Calisto MT';-inkscape-font-specification:'Calisto MT, Italic';font-variant-ligatures:normal;font-variant-caps:normal;font-variant-numeric:normal;font-variant-east-asian:normal;fill:#3399aa;stroke-width:0.264583;fill-opacity:1"
           id="path2024" />
      </g>
    </g>
    <g
       id="g39"
       transform="matrix(0.8869912,0,0,0.8869912,2.6858106,1.3663827)"
       style="display:inline;fill:#444444">
      <g
         aria-label="ossdale"
         id="text22"
         style="font-size:14.1111px;line-height:1.25;font-family:'Calisto MT';-inkscape-font-specification:'Calisto MT, Italic';font-variant-ligatures:normal;font-variant-caps:normal;font-variant-numeric:normal;font-variant-east-asian:normal;text-align:start;letter-spacing:0px;word-spacing:0px;writing-mode:lr-tb;text-anchor:start;fill:#3399aa;fill-opacity:1;stroke:none;stroke-width:0.264583">
        <path
           d="m 24.135108,12.606821 q 0,-0.902614 0.358289,-1.715656 0.35829,-0.813042 0.943956,-1.4193782 0.585666,-0.6063364 1.254014,-0.9301751 0.675238,-0.3238387 1.254013,-0.3238387 0.695909,0 1.074869,0.4134111 0.385851,0.406521 0.516764,0.9301751 0.130914,0.5236538 0.130914,0.9715158 0,0.881944 -0.3514,1.660535 -0.344509,0.771701 -0.930175,1.378037 -0.585666,0.599446 -1.267794,0.930175 -0.682128,0.323839 -1.288465,0.323839 -0.881943,0 -1.288464,-0.689019 -0.406521,-0.689018 -0.406521,-1.529621 z m 1.102429,-0.110243 q 0,0.606337 0.248047,1.150661 0.248047,0.544325 0.923285,0.544325 0.599446,0 1.095539,-0.530544 0.496094,-0.530545 0.785482,-1.384928 0.289387,-0.854383 0.289387,-1.743217 0,-0.571885 -0.199815,-1.1437705 -0.199815,-0.5787755 -0.902614,-0.5787755 -0.606337,0 -1.123101,0.6132265 -0.509873,0.6063365 -0.813041,1.4882805 -0.303169,0.881943 -0.303169,1.584742 z"
           style="font-size:14.1111px;font-family:'Calisto MT';-inkscape-font-specification:'Calisto MT, Italic';font-variant-ligatures:normal;font-variant-caps:normal;font-variant-numeric:normal;font-variant-east-asian:normal;fill:#3399aa;stroke-width:0.264583"
           id="path1993" />
        <path
           d="M 34.22234,9.8714175 H 33.898501 Q 33.85716,9.4648966 33.629784,9.0997168 33.409298,8.7276467 32.796071,8.7276467 q -0.420301,0 -0.695909,0.2411565 -0.275607,0.2411565 -0.275607,0.592556 0,0.1584743 0.07579,0.3238387 0.07579,0.1584741 0.289388,0.3996311 0.213596,0.241156 0.592556,0.599446 0.558105,0.537434 0.840602,1.005967 0.289388,0.461642 0.289388,0.930175 0,0.502984 -0.337619,0.971516 -0.330729,0.461643 -0.909504,0.75103 -0.578776,0.282498 -1.260904,0.282498 -0.647678,0 -1.033528,-0.172255 -0.37896,-0.165364 -0.73036,-0.434081 0.36518,-0.661458 0.592556,-1.219563 l 0.179145,0.04823 q 0.103353,0.447862 0.213596,0.592556 0.186035,0.234266 0.523654,0.38585 0.337619,0.144694 0.675238,0.144694 0.496093,0 0.792371,-0.261827 0.296278,-0.261827 0.296278,-0.682128 0,-0.282498 -0.220486,-0.640787 Q 32.479121,12.22786 31.852114,11.580183 31.28023,10.966957 31.087305,10.650009 30.89438,10.33306 30.89438,9.9678801 q 0,-0.4547522 0.296278,-0.8612732 0.296278,-0.4065209 0.819932,-0.6476774 0.523654,-0.2411565 1.157551,-0.2411565 0.799262,0 1.433159,0.3996308 -0.04823,0.151584 -0.165365,0.5512148 -0.117133,0.3996308 -0.213595,0.7027989 z"
           style="font-size:14.1111px;font-family:'Calisto MT';-inkscape-font-specification:'Calisto MT, Italic';font-variant-ligatures:normal;font-variant-caps:normal;font-variant-numeric:normal;font-variant-east-asian:normal;fill:#999999;stroke-width:0.264583"
           id="path1995" />
        <path
           d="M 38.783642,9.8714175 H 38.459804 Q 38.418462,9.4648966 38.191086,9.0997168 37.9706,8.7276467 37.357374,8.7276467 q -0.420301,0 -0.695909,0.2411565 -0.275607,0.2411565 -0.275607,0.592556 0,0.1584743 0.07579,0.3238387 0.07579,0.1584741 0.289388,0.3996311 0.213595,0.241156 0.592555,0.599446 0.558106,0.537434 0.840603,1.005967 0.289388,0.461642 0.289388,0.930175 0,0.502984 -0.337619,0.971516 -0.330729,0.461643 -0.909505,0.75103 -0.578775,0.282498 -1.260904,0.282498 -0.647677,0 -1.033527,-0.172255 -0.378961,-0.165364 -0.73036,-0.434081 0.36518,-0.661458 0.592556,-1.219563 l 0.179145,0.04823 q 0.103352,0.447862 0.213595,0.592556 0.186035,0.234266 0.523654,0.38585 0.33762,0.144694 0.675239,0.144694 0.496093,0 0.792371,-0.261827 0.296278,-0.261827 0.296278,-0.682128 0,-0.282498 -0.220486,-0.640787 -0.213596,-0.35829 -0.840603,-1.005967 -0.571885,-0.613227 -0.76481,-0.930175 -0.192925,-0.316949 -0.192925,-0.6821289 0,-0.4547522 0.296278,-0.8612732 0.296278,-0.4065209 0.819932,-0.6476774 0.523654,-0.2411565 1.157551,-0.2411565 0.799261,0 1.433158,0.3996308 -0.04823,0.151584 -0.165364,0.5512148 -0.117133,0.3996308 -0.213596,0.7027989 z"
           style="font-size:14.1111px;font-family:'Calisto MT';-inkscape-font-specification:'Calisto MT, Italic';font-variant-ligatures:normal;font-variant-caps:normal;font-variant-numeric:normal;font-variant-east-asian:normal;fill:#999999;stroke-width:0.264583"
           id="path1997" />
        <path
           d="m 45.212186,12.94444 0.248046,0.296278 q -1.694985,1.584743 -2.315102,1.584743 -0.09646,0 -0.220486,-0.06201 -0.117133,-0.06201 -0.117133,-0.296278 0,-0.07579 0.05512,-0.303168 0.05512,-0.234266 0.117134,-0.468532 0.0689,-0.241157 0.124023,-0.454753 l 0.130913,-0.461642 -0.02756,-0.02756 q -0.585666,0.73036 -1.329806,1.405598 -0.74414,0.668348 -1.322916,0.668348 -0.475423,0 -0.819932,-0.502984 -0.337619,-0.509873 -0.337619,-1.391817 0,-0.937065 0.36518,-1.791448 0.36518,-0.854383 0.971516,-1.508951 Q 41.3399,8.9756964 42.07026,8.5967362 42.80751,8.217776 43.530979,8.217776 q 0.330729,0 0.861274,0.1446939 l 0.434081,-1.4538292 q 0.06201,-0.2342663 0.144694,-0.4547522 0.110243,-0.3582897 0.110243,-0.5236541 0,-0.1929252 -0.227376,-0.1929252 -0.268717,0 -0.785481,0.082682 l 0.09646,-0.3927406 q 0.39274,-0.1309135 0.620116,-0.1998154 0.234267,-0.075792 0.551215,-0.1791448 0.316949,-0.1033528 0.392741,-0.1309135 0.144694,-0.062012 0.351399,-0.1584743 0.213596,-0.096463 0.399631,-0.1791448 l 0.227376,0.1653644 q -0.172255,0.3789602 -0.310058,0.7510303 -0.268718,0.7372498 -0.461643,1.3160254 -0.192925,0.5787756 -0.420301,1.2884647 -0.227376,0.7096892 -0.37896,1.2057825 -0.544325,1.7501069 -0.709689,2.3013219 -0.165365,0.551215 -0.296278,1.040418 -0.124024,0.489204 -0.124024,0.72347 0,0.220486 0.172255,0.220486 0.172255,0 0.792371,-0.461643 z M 44.151097,9.2375205 q -0.606336,-0.3720701 -1.171331,-0.3720701 -0.682129,0 -1.129991,0.4685327 -0.633897,0.6545676 -0.978406,1.5847429 -0.34451,0.923285 -0.34451,1.784558 0,0.571885 0.158475,0.902614 0.165364,0.330729 0.420301,0.330729 0.289388,0 0.654568,-0.303168 0.36518,-0.310058 0.668348,-0.613227 0.585666,-0.633897 0.888834,-1.309135 0.310058,-0.675238 0.675238,-1.9430322 0.02067,-0.110243 0.158474,-0.5305443 z"
           style="font-size:14.1111px;font-family:'Calisto MT';-inkscape-font-specification:'Calisto MT, Italic';font-variant-ligatures:normal;font-variant-caps:normal;font-variant-numeric:normal;font-variant-east-asian:normal;fill:#999999;stroke-width:0.264583"
           id="path1999" />
        <path
           d="m 51.881885,12.94444 0.227376,0.296278 q -0.413411,0.413411 -0.909504,0.792372 -0.489204,0.37896 -0.868164,0.585665 -0.37896,0.206706 -0.537434,0.206706 -0.323839,0 -0.323839,-0.399631 0,-0.192925 0.110243,-0.633897 0.117133,-0.447862 0.158474,-0.509874 0.06201,-0.248046 0.137804,-0.475422 l -0.02756,-0.02756 q -0.578775,0.73725 -1.295355,1.391817 -0.716579,0.654568 -1.302245,0.654568 -0.461642,0 -0.799261,-0.447862 -0.337619,-0.454752 -0.337619,-1.316026 0,-0.881943 0.365179,-1.750107 0.37207,-0.868163 1.019748,-1.5640718 0.647677,-0.6959087 1.49517,-1.1093199 0.847493,-0.4203013 1.784558,-0.4203013 0.110243,0 0.668348,0.068902 0.564995,0.068902 0.647678,0.075792 l 0.08268,0.1653644 q -0.399631,0.8268223 -0.75103,1.8879106 -0.3514,1.061089 -0.564996,1.908582 -0.206705,0.847492 -0.206705,1.005967 0,0.282497 0.172255,0.282497 0.220485,0 0.902614,-0.537434 0.110243,-0.110243 0.151584,-0.130914 z M 50.882808,8.996364 q -0.530544,-0.1722547 -0.833712,-0.1722547 -0.564996,0 -1.074869,0.3513995 -0.509874,0.3445093 -0.902615,0.9439552 -0.39274,0.592556 -0.620116,1.329806 -0.227377,0.73725 -0.227377,1.453829 0,0.544325 0.179145,0.806152 0.186035,0.254937 0.37207,0.254937 0.268718,0 0.819932,-0.454752 0.558105,-0.454753 1.033528,-1.171332 0.310059,-0.447862 0.516764,-0.999077 0.206706,-0.558105 0.592556,-1.8810206 0.01378,-0.034451 0.0689,-0.2204859 0.06201,-0.186035 0.07579,-0.2411565 z"
           style="font-size:14.1111px;font-family:'Calisto MT';-inkscape-font-specification:'Calisto MT, Italic';font-variant-ligatures:normal;font-variant-caps:normal;font-variant-numeric:normal;font-variant-east-asian:normal;fill:#999999;stroke-width:0.264583"
           id="path2001" />
        <path
           d="m 54.100524,5.8475491 0.117133,-0.4203013 0.282498,-0.075792 Q 55.42344,5.0689582 55.726608,4.9587152 56.029776,4.841582 56.56032,4.579755 l 0.179145,0.2135957 Q 56.643002,4.9862759 56.470748,5.4548085 56.19514,6.212729 55.905753,7.1153433 55.843741,7.3151587 55.699047,7.7699109 55.561243,8.217773 55.44411,8.589843 55.326977,8.9550229 55.134052,9.5751396 l -0.468533,1.5502914 q -0.0689,0.206706 -0.165364,0.551215 -0.144694,0.454752 -0.316949,1.061089 -0.165364,0.606336 -0.165364,0.74414 0,0.186035 0.151584,0.186035 0.172254,0 0.895724,-0.551215 0.124023,-0.07579 0.192925,-0.144694 l 0.268717,0.296278 q -0.613226,0.647678 -1.378037,1.10243 -0.76481,0.454752 -1.033528,0.454752 -0.151584,0 -0.275607,-0.08957 -0.117133,-0.08957 -0.117133,-0.268718 0,-0.365179 0.661458,-2.384004 0.103352,-0.310058 0.39274,-1.260904 0.296278,-0.9577356 0.454752,-1.5158407 0.165365,-0.558105 0.36518,-1.2471236 0.206706,-0.6959087 0.537435,-1.8327894 0.04134,-0.2067055 0.04134,-0.2204859 0,-0.2273761 -0.282498,-0.2273761 -0.220486,0 -0.792371,0.068902 z"
           style="font-size:14.1111px;font-family:'Calisto MT';-inkscape-font-specification:'Calisto MT, Italic';font-variant-ligatures:normal;font-variant-caps:normal;font-variant-numeric:normal;font-variant-east-asian:normal;fill:#999999;stroke-width:0.264583"
           id="path2003" />
        <path
           d="m 60.088095,13.020232 0.282498,0.392741 q -1.736327,1.412488 -2.769855,1.412488 -0.530544,0 -0.833712,-0.303168 -0.296278,-0.310059 -0.399631,-0.73036 -0.103353,-0.427191 -0.103353,-0.819932 0,-0.916395 0.36518,-1.777668 0.36518,-0.861273 0.992187,-1.5365112 0.627006,-0.6821284 1.371146,-1.0610886 0.744141,-0.3789602 1.4745,-0.3789602 0.337619,0 0.606337,0.1791448 0.268717,0.1722547 0.268717,0.5994462 0,0.668348 -0.502984,1.267794 -0.502983,0.592556 -1.164441,0.888834 -0.537435,0.254937 -1.09554,0.399631 -0.551215,0.137804 -1.088649,0.220486 0,0.02756 -0.04823,0.358289 -0.04134,0.323839 -0.04134,0.558105 0,0.475423 0.151584,0.888834 0.158474,0.413412 0.613226,0.413412 0.668348,0 1.922362,-0.971517 z m -2.459796,-1.736326 q 1.639864,-0.289388 2.170408,-0.923285 0.537435,-0.6407875 0.537435,-1.1506613 0,-0.4685326 -0.434082,-0.4685326 -0.475423,0 -1.150661,0.592556 -0.668348,0.5856657 -1.1231,1.9499229 z"
           style="font-size:14.1111px;font-family:'Calisto MT';-inkscape-font-specification:'Calisto MT, Italic';font-variant-ligatures:normal;font-variant-caps:normal;font-variant-numeric:normal;font-variant-east-asian:normal;fill:#999999;stroke-width:0.264583"
           id="path2005" />
      </g>
      <g
         aria-label="ravel"
         id="text26"
         style="font-size:14.1111px;line-height:1.25;font-family:'Calisto MT';-inkscape-font-specification:'Calisto MT, Italic';font-variant-ligatures:normal;font-variant-caps:normal;font-variant-numeric:normal;font-variant-east-asian:normal;text-align:start;letter-spacing:0px;word-spacing:0px;writing-mode:lr-tb;text-anchor:start;fill:#999999;fill-opacity:1;stroke:none;stroke-width:0.264583">
        <path
           d="M 71.406087,10.140135 71.151151,9.8300764 q 1.681205,-1.6123034 2.301322,-1.6123034 0.268717,0 0.268717,0.2824976 0,0.2135958 -0.130914,0.6821284 -0.130913,0.4685326 -0.344509,1.095539 -0.213596,0.620117 -0.3514,0.978407 -0.130913,0.35829 -0.234266,0.606336 l 0.02756,0.02756 Q 73.266437,10.863603 73.76942,10.085012 74.272404,9.2995311 74.610023,8.9067906 74.954532,8.51405 75.216359,8.3693561 75.485076,8.217772 75.781354,8.217772 q 0.206706,0 0.509874,0.1446939 -0.220486,0.4340817 -0.282498,0.5856658 -0.05512,0.1446939 -0.241156,0.6407872 h -0.296278 q -0.09646,-0.1998154 -0.254937,-0.1998154 -0.241156,0 -0.571885,0.3513995 -0.330729,0.344509 -0.620117,0.764811 -0.282498,0.420301 -0.613227,0.971516 -0.440971,0.716579 -0.640787,1.171331 -0.199815,0.447862 -0.489203,1.398708 -0.110243,0.392741 -0.186035,0.578776 -0.399631,0 -0.558105,0.01378 -0.158474,0.01378 -0.537435,0.08268 0.117134,-0.37207 0.537435,-1.688095 0.420301,-1.316026 0.709689,-2.266871 0.289388,-0.9577361 0.289388,-1.0955398 0,-0.2411565 -0.172255,-0.2411565 -0.110243,0 -0.39274,0.2204859 -0.282498,0.2204859 -0.36518,0.3031682 z"
           style="font-size:14.1111px;font-family:'Calisto MT';-inkscape-font-specification:'Calisto MT, Italic';font-variant-ligatures:normal;font-variant-caps:normal;font-variant-numeric:normal;font-variant-east-asian:normal;fill:#999999;stroke-width:0.264583"
           id="path2008" />
        <path
           d="m 81.224602,12.94444 0.227376,0.296278 q -0.413411,0.413411 -0.909505,0.792372 -0.489203,0.37896 -0.868163,0.585665 -0.37896,0.206706 -0.537435,0.206706 -0.323838,0 -0.323838,-0.399631 0,-0.192925 0.110243,-0.633897 0.117133,-0.447862 0.158474,-0.509874 0.06201,-0.248046 0.137804,-0.475422 l -0.02756,-0.02756 q -0.578776,0.73725 -1.295355,1.391817 -0.716579,0.654568 -1.302245,0.654568 -0.461643,0 -0.799262,-0.447862 -0.337619,-0.454752 -0.337619,-1.316026 0,-0.881943 0.36518,-1.750107 0.37207,-0.868163 1.019748,-1.5640718 0.647677,-0.6959087 1.49517,-1.1093199 0.847493,-0.4203013 1.784558,-0.4203013 0.110243,0 0.668348,0.068902 0.564995,0.068902 0.647677,0.075792 l 0.08268,0.1653644 q -0.399631,0.8268223 -0.751031,1.8879106 -0.351399,1.061089 -0.564995,1.908582 -0.206705,0.847492 -0.206705,1.005967 0,0.282497 0.172254,0.282497 0.220486,0 0.902615,-0.537434 0.110243,-0.110243 0.151584,-0.130914 z M 80.225525,8.996364 Q 79.69498,8.8241093 79.391812,8.8241093 q -0.564995,0 -1.074869,0.3513995 -0.509873,0.3445093 -0.902614,0.9439552 -0.392741,0.592556 -0.620117,1.329806 -0.227376,0.73725 -0.227376,1.453829 0,0.544325 0.179145,0.806152 0.186035,0.254937 0.37207,0.254937 0.268717,0 0.819932,-0.454752 0.558105,-0.454753 1.033528,-1.171332 0.310058,-0.447862 0.516764,-0.999077 0.206705,-0.558105 0.592556,-1.8810206 0.01378,-0.034451 0.0689,-0.2204859 0.06201,-0.186035 0.07579,-0.2411565 z"
           style="font-size:14.1111px;font-family:'Calisto MT';-inkscape-font-specification:'Calisto MT, Italic';font-variant-ligatures:normal;font-variant-caps:normal;font-variant-numeric:normal;font-variant-east-asian:normal;fill:#999999;stroke-width:0.264583"
           id="path2010" />
        <path
           d="M 82.499287,10.050562 82.216789,9.8025157 Q 82.671541,9.2513008 83.202086,8.7345369 83.73263,8.217773 84.1047,8.217773 q 0.261827,0 0.399631,0.3376191 0.179144,0.5236541 0.179144,1.8396799 0,0.792371 -0.08268,2.425345 l -0.02756,0.475423 0.02756,0.03445 q 0.440972,-0.523654 0.73036,-0.875054 0.289388,-0.358289 0.675238,-0.902614 0.392741,-0.544325 0.627007,-1.005967 0.241156,-0.468533 0.241156,-0.8199324 0,-0.3445092 -0.151584,-0.4409718 -0.151584,-0.096463 -0.358289,-0.110243 L 86.309563,9.0514845 Q 86.619622,8.775877 86.764316,8.6174028 86.9159,8.4589285 87.101935,8.217772 q 0.447862,0.1240233 0.592556,0.4685326 0.151584,0.3376191 0.151584,0.6063363 0,0.6132266 -0.399631,1.2677941 -0.392741,0.647678 -1.10932,1.522731 -0.261827,0.316949 -0.723469,0.854383 -0.461643,0.537435 -0.950846,1.067979 -0.482313,0.530544 -0.764811,0.819932 h -0.39963 q 0.110242,-1.095539 0.151584,-2.21175 0.04823,-1.1231 0.04823,-1.570962 0,-0.564995 -0.05512,-1.1368805 -0.05512,-0.5718854 -0.254936,-0.5718854 -0.137804,0 -0.475423,0.3031681 -0.330729,0.3031682 -0.413411,0.4134108 z"
           style="font-size:14.1111px;font-family:'Calisto MT';-inkscape-font-specification:'Calisto MT, Italic';font-variant-ligatures:normal;font-variant-caps:normal;font-variant-numeric:normal;font-variant-east-asian:normal;fill:#999999;stroke-width:0.264583"
           id="path2012" />
        <path
           d="m 91.787257,13.020232 0.282497,0.392741 q -1.736327,1.412488 -2.769854,1.412488 -0.530545,0 -0.833713,-0.303168 -0.296278,-0.310059 -0.399631,-0.73036 -0.103353,-0.427191 -0.103353,-0.819932 0,-0.916395 0.36518,-1.777668 0.36518,-0.861273 0.992187,-1.5365112 0.627007,-0.6821284 1.371147,-1.0610886 0.74414,-0.3789602 1.4745,-0.3789602 0.337619,0 0.606336,0.1791448 0.268717,0.1722547 0.268717,0.5994462 0,0.668348 -0.502983,1.267794 -0.502984,0.592556 -1.164442,0.888834 -0.537434,0.254937 -1.095539,0.399631 -0.551215,0.137804 -1.088649,0.220486 0,0.02756 -0.04823,0.358289 -0.04134,0.323839 -0.04134,0.558105 0,0.475423 0.151584,0.888834 0.158474,0.413412 0.613227,0.413412 0.668348,0 1.922362,-0.971517 z M 89.32746,11.283906 q 1.639864,-0.289388 2.170409,-0.923285 0.537434,-0.6407875 0.537434,-1.1506613 0,-0.4685326 -0.434081,-0.4685326 -0.475423,0 -1.150661,0.592556 -0.668348,0.5856657 -1.123101,1.9499229 z"
           style="font-size:14.1111px;font-family:'Calisto MT';-inkscape-font-specification:'Calisto MT, Italic';font-variant-ligatures:normal;font-variant-caps:normal;font-variant-numeric:normal;font-variant-east-asian:normal;fill:#999999;stroke-width:0.264583"
           id="path2014" />
        <path
           d="m 94.481318,5.8475491 0.117134,-0.4203013 0.282497,-0.075792 Q 95.804234,5.0689582 96.107402,4.9587152 96.41057,4.841582 96.941115,4.579755 L 97.12026,4.7933507 Q 97.023797,4.9862759 96.851542,5.4548085 96.575935,6.212729 96.286547,7.1153433 96.224535,7.3151587 96.079842,7.7699109 95.942038,8.217773 95.824905,8.589843 95.707771,8.9550229 95.514846,9.5751396 l -0.468532,1.5502914 q -0.0689,0.206706 -0.165365,0.551215 -0.144694,0.454752 -0.316948,1.061089 -0.165365,0.606336 -0.165365,0.74414 0,0.186035 0.151584,0.186035 0.172255,0 0.895724,-0.551215 0.124024,-0.07579 0.192926,-0.144694 l 0.268717,0.296278 q -0.613227,0.647678 -1.378037,1.10243 -0.764811,0.454752 -1.033528,0.454752 -0.151584,0 -0.275608,-0.08957 -0.117133,-0.08957 -0.117133,-0.268718 0,-0.365179 0.661458,-2.384004 0.103353,-0.310058 0.392741,-1.260904 0.296278,-0.9577356 0.454752,-1.5158407 0.165364,-0.558105 0.36518,-1.2471236 0.206705,-0.6959087 0.537434,-1.8327894 0.04134,-0.2067055 0.04134,-0.2204859 0,-0.2273761 -0.282497,-0.2273761 -0.220486,0 -0.792372,0.068902 z"
           style="font-size:14.1111px;font-family:'Calisto MT';-inkscape-font-specification:'Calisto MT, Italic';font-variant-ligatures:normal;font-variant-caps:normal;font-variant-numeric:normal;font-variant-east-asian:normal;fill:#999999;stroke-width:0.264583"
           id="path2016" />
      </g>
    </g>
  </g>
</svg>
