<svg
    xmlns="http://www.w3.org/2000/svg" width="284.479" height="51.749" viewBox="0 0 75.268 13.692">
    <link xmlns="http://www.w3.org/1999/xhtml" rel="stylesheet" href="./style.css" type="text/css"/>

    <g id="caps" style="display:inline;">
        <g aria-label="T">
           <path d="M75.773 6.457h-.723l.01-.382.093-1.757q.041-.507-.28-.62-.32-.124-1.26-.124h-2.325q-.01.062-.114.393-.103.33-.124.413-.124.455-.383 1.323-.248.868-.423 1.457l-.403 1.406q-.228.827-.383 1.374-1.209 4.362-1.457 5.313-.041.134-.041.361 0 .197.124.259.217.134 1.509.32.465.104.547.104l-.165.61q-.506-.032-1.406-.063-1.054-.041-1.705-.041-1.033 0-3.493.103l.165-.61q.031 0 .083-.01.062-.02.124-.03.072-.011.155-.021.093-.021.124-.021 1.343-.217 1.591-.403.455-.383 1.137-2.884.073-.31.58-1.922.092-.33.185-.64.104-.321.145-.507l.94-3.256q.476-1.633.858-3.028h-2.325q-.744 0-1.106.082-.352.073-.59.362-.237.28-.526.972l-.61 1.467h-.744q.537-1.974.889-3.958.392 0 .713.01.33.01.878.02.548.011 1.375.032 1.88.062 2.894.062.65 0 3.049-.041l3.41-.083q-.392 1.24-.547 1.943-.125.579-.259 1.178-.134.59-.186.837Z"
            transform="matrix(.8909 0 0 .8909 -10.535 -1.273)"/>
        </g>
        <g aria-label="R">
            <path d="m17.166 4.085.135-.57q.386.02.627.04.25.018.636.038.984.038 1.679.038.54 0 1.717-.038.733-.078 1.582-.078 1.273 0 2.17.57.897.569.897 1.939 0 .51-.173 1.109-.174.598-.666 1.235-.482.636-1.34 1.128-.599.338-1.09.492-.483.154-1.062.26.02.058.097.232.077.174.096.232.03.057.048.106.078.154.483 1.013.415.858.579 1.244.983 2.093 1.205 2.412.174.231.386.366.222.135.56.241.347.106 1.013.26.077.01.173.03.106.019.155.038.048.01.067.01l-.135.53q-.309-.029-.752-.058-.637-.038-1.283-.038-1.033 0-1.717.058-.463-1.409-1.293-3.357l-.328-.791-.386-.936q-.183-.453-.386-.936-.01-.048-.106-.28-.096-.23-.116-.26-.569 0-1.418-.115l-.202.704q-.087.337-.27.974-.174.627-.357 1.322-.454 1.755-.598 2.218-.058.116-.058.251 0 .232.424.376.434.135 1.12.26l.337.04-.164.568q-.405-.029-1.003-.058-.868-.038-1.698-.038-1.466 0-3.106.096l.145-.569q.125 0 .414-.077.85-.164 1.148-.29.309-.125.454-.366.144-.25.385-1.003.454-1.418 1.12-3.714.675-2.296 1.167-4.138.501-1.843.501-2.045 0-.222-.173-.28-.068-.029-1.64-.395zm3.752.472-.772 2.508q-.55 1.804-.733 2.47.897.058 1.052.058 1.138 0 2.122-.338.984-.347 1.601-1.07.618-.734.618-1.891 0-1.891-2.19-1.891-.675 0-1.698.154z"
            transform="translate(-13.562 -3.174)"/>
        </g>
    </g>
    <g id="words" style="display:inline;fill-opacity:.9">
        <g aria-label="ossdale">
            <path d="M24.135 12.607q0-.903.358-1.716.359-.813.944-1.42.586-.606 1.254-.93.676-.323 1.254-.323.696 0 1.075.413.386.407.517.93.13.524.13.972 0 .882-.35 1.66-.345.772-.93 1.378-.586.6-1.268.93-.683.324-1.289.324-.882 0-1.288-.689-.407-.689-.407-1.53zm1.103-.11q0 .606.248 1.15.248.545.923.545.6 0 1.095-.531.497-.53.786-1.385.29-.854.29-1.743 0-.572-.2-1.144-.2-.579-.903-.579-.606 0-1.123.614-.51.606-.813 1.488-.303.882-.303 1.585zM34.222 9.871H33.9q-.042-.406-.27-.771-.22-.372-.833-.372-.42 0-.696.24-.275.242-.275.593 0 .159.075.324.076.159.29.4.213.241.592.6.558.537.84 1.005.29.462.29.93 0 .503-.337.972-.331.462-.91.751-.579.282-1.26.282-.648 0-1.034-.172-.38-.165-.73-.434.365-.661.592-1.22l.18.049q.102.448.213.592.186.235.523.386.338.145.676.145.496 0 .792-.262.296-.262.296-.682 0-.283-.22-.64-.214-.36-.84-1.007-.573-.613-.766-.93-.193-.317-.193-.682 0-.455.297-.861.296-.407.82-.648.523-.241 1.157-.241.8 0 1.433.4-.048.151-.165.55-.117.4-.214.703zM38.784 9.871h-.324q-.042-.406-.269-.771-.22-.372-.834-.372-.42 0-.696.24-.275.242-.275.593 0 .159.076.324.075.159.289.4.214.241.593.6.558.537.84 1.005.29.462.29.93 0 .503-.338.972-.33.462-.91.751-.578.282-1.26.282-.648 0-1.034-.172-.379-.165-.73-.434.365-.661.592-1.22l.18.049q.103.448.213.592.186.235.524.386.337.145.675.145.496 0 .792-.262.297-.262.297-.682 0-.283-.221-.64-.214-.36-.84-1.007-.572-.613-.765-.93-.193-.317-.193-.682 0-.455.296-.861.296-.407.82-.648.524-.241 1.157-.241.8 0 1.434.4-.049.151-.166.55-.117.4-.213.703zM45.212 12.944l.248.297q-1.695 1.584-2.315 1.584-.096 0-.22-.062-.117-.062-.117-.296 0-.076.055-.303.055-.234.117-.469.069-.24.124-.454l.13-.462-.027-.027q-.586.73-1.33 1.405-.744.668-1.323.668-.475 0-.82-.503-.337-.51-.337-1.391 0-.937.365-1.792.365-.854.972-1.509.606-.654 1.336-1.033.738-.38 1.461-.38.33 0 .861.145l.434-1.453q.062-.235.145-.455.11-.358.11-.524 0-.193-.227-.193-.269 0-.786.083l.097-.393q.393-.13.62-.2l.551-.179q.317-.103.393-.13.145-.063.351-.16l.4-.178.227.165q-.172.38-.31.751-.268.737-.461 1.316-.193.579-.42 1.289-.228.71-.38 1.205-.544 1.75-.71 2.302-.165.551-.296 1.04-.124.49-.124.724 0 .22.173.22.172 0 .792-.462zm-1.06-3.706q-.607-.373-1.172-.373-.682 0-1.13.469-.634.655-.979 1.585-.344.923-.344 1.784 0 .572.158.903.166.33.42.33.29 0 .655-.303.365-.31.669-.613.585-.634.888-1.309.31-.675.676-1.943.02-.11.158-.53zM51.882 12.944l.227.297q-.413.413-.91.792-.488.38-.867.586-.38.206-.538.206-.324 0-.324-.4 0-.192.11-.633.118-.448.159-.51.062-.248.138-.475l-.028-.028q-.578.737-1.295 1.392-.717.654-1.302.654-.462 0-.8-.447-.337-.455-.337-1.316 0-.882.365-1.75.372-.869 1.02-1.565.647-.696 1.495-1.109.847-.42 1.784-.42.11 0 .669.069.565.069.647.075l.083.166q-.4.827-.75 1.888-.352 1.06-.566 1.908-.207.848-.207 1.006 0 .283.173.283.22 0 .902-.538.11-.11.152-.13zm-1-3.948q-.53-.172-.833-.172-.565 0-1.075.352-.51.344-.902.943-.393.593-.62 1.33-.228.738-.228 1.454 0 .544.18.806.185.255.371.255.27 0 .82-.455.558-.454 1.034-1.17.31-.449.517-1 .206-.558.592-1.881.014-.034.069-.22.062-.187.076-.242zM54.1 5.848l.118-.42.282-.077q.923-.282 1.227-.392.303-.117.833-.38l.18.214q-.097.193-.27.662-.275.758-.564 1.66-.062.2-.207.655-.138.448-.255.82-.117.365-.31.985l-.468 1.55q-.07.207-.166.552-.145.454-.317 1.06-.165.607-.165.745 0 .186.151.186.173 0 .896-.551.124-.076.193-.145l.269.296q-.613.648-1.378 1.103-.765.454-1.034.454-.151 0-.275-.09-.118-.089-.118-.268 0-.365.662-2.384.103-.31.393-1.26.296-.958.454-1.517.166-.558.366-1.247.206-.696.537-1.832.041-.207.041-.221 0-.227-.282-.227-.22 0-.792.069zM60.088 13.02l.283.393q-1.737 1.412-2.77 1.412-.53 0-.834-.303-.296-.31-.4-.73-.103-.427-.103-.82 0-.916.365-1.778.365-.86.992-1.536.627-.682 1.372-1.061.744-.38 1.474-.38.338 0 .606.18.27.172.27.6 0 .668-.504 1.267-.503.593-1.164.889-.538.255-1.096.4-.551.137-1.089.22 0 .028-.048.358-.041.324-.041.559 0 .475.152.888.158.414.613.414.668 0 1.922-.972zm-2.46-1.736q1.64-.29 2.17-.923.538-.641.538-1.151 0-.469-.434-.469-.475 0-1.15.593-.669.586-1.124 1.95z"
            transform="matrix(.887 0 0 .887 -10.876 -1.808)"/>
        </g>
        <g aria-label="ravel" >
            <path d="m71.406 10.14-.255-.31q1.681-1.612 2.301-1.612.27 0 .27.282 0 .214-.132.682-.13.469-.344 1.096-.214.62-.352.978-.13.359-.234.607l.028.027q.578-1.026 1.081-1.805.503-.785.841-1.178.345-.393.606-.538.27-.151.565-.151.207 0 .51.144-.22.435-.282.586l-.241.64h-.297q-.096-.199-.255-.199-.24 0-.572.352-.33.344-.62.764-.282.42-.613.972-.44.716-.64 1.171-.2.448-.49 1.399-.11.393-.186.579-.4 0-.558.013-.158.014-.537.083.117-.372.537-1.688.42-1.316.71-2.267.29-.958.29-1.095 0-.242-.173-.242-.11 0-.393.22-.282.221-.365.304zM81.225 12.944l.227.297q-.413.413-.91.792-.489.38-.868.586-.379.206-.537.206-.324 0-.324-.4 0-.192.11-.633.117-.448.159-.51.062-.248.138-.475l-.028-.028q-.579.737-1.295 1.392-.717.654-1.303.654-.461 0-.799-.447-.337-.455-.337-1.316 0-.882.365-1.75.372-.869 1.02-1.565.647-.696 1.495-1.109.847-.42 1.784-.42.11 0 .669.069.565.069.647.075l.083.166q-.4.827-.751 1.888-.352 1.06-.565 1.908-.207.848-.207 1.006 0 .283.172.283.22 0 .903-.538.11-.11.152-.13zm-1-3.948q-.53-.172-.833-.172-.565 0-1.075.352-.51.344-.903.943-.392.593-.62 1.33-.227.738-.227 1.454 0 .544.179.806.186.255.372.255.269 0 .82-.455.558-.454 1.034-1.17.31-.449.516-1 .207-.558.593-1.881.014-.034.069-.22.062-.187.076-.242zM82.5 10.05l-.283-.247q.455-.552.985-1.068.53-.517.903-.517.262 0 .4.337.178.524.178 1.84 0 .792-.082 2.425l-.028.476.028.034q.44-.523.73-.875.29-.358.675-.902.393-.545.627-1.006.242-.469.242-.82 0-.345-.152-.441-.152-.097-.358-.11l-.055-.125q.31-.275.454-.434.152-.158.338-.4.448.125.592.47.152.337.152.606 0 .613-.4 1.267-.392.648-1.109 1.523-.262.317-.723.855-.462.537-.951 1.068-.483.53-.765.82h-.4q.11-1.096.152-2.212.048-1.123.048-1.571 0-.565-.055-1.137-.055-.572-.255-.572-.138 0-.475.303-.331.303-.414.414zM91.787 13.02l.283.393q-1.737 1.412-2.77 1.412-.53 0-.834-.303-.296-.31-.4-.73-.103-.427-.103-.82 0-.916.365-1.778.366-.86.993-1.536.627-.682 1.37-1.061.745-.38 1.475-.38.338 0 .607.18.268.172.268.6 0 .668-.503 1.267-.503.593-1.164.889-.538.255-1.096.4-.55.137-1.088.22 0 .028-.049.358-.04.324-.04.559 0 .475.15.888.16.414.614.414.668 0 1.922-.972zm-2.46-1.736q1.64-.29 2.17-.923.538-.641.538-1.151 0-.469-.434-.469-.475 0-1.15.593-.669.586-1.124 1.95zM94.481 5.848l.117-.42.283-.077q.923-.282 1.226-.392.304-.117.834-.38l.18.214q-.097.193-.27.662-.275.758-.564 1.66-.062.2-.207.655-.138.448-.255.82-.117.365-.31.985l-.469 1.55q-.069.207-.165.552-.145.454-.317 1.06-.165.607-.165.745 0 .186.151.186.172 0 .896-.551.124-.076.193-.145l.269.296q-.614.648-1.378 1.103-.765.454-1.034.454-.152 0-.276-.09-.117-.089-.117-.268 0-.365.662-2.384.103-.31.392-1.26.297-.958.455-1.517.166-.558.365-1.247.207-.696.538-1.832.041-.207.041-.221 0-.227-.282-.227-.22 0-.793.069z"
            transform="matrix(.887 0 0 .887 -10.876 -1.808)"/>
        </g>
    </g>
</svg>
