<svg
    xmlns="http://www.w3.org/2000/svg"
    width="284.479"
    height="51.749"
    viewBox="0 0 75.268 13.692">

        <g fill="#0e590a" fill-opacity=".9" font-size="14.111">
            <g stroke-width=".265">
                <path d="M3.603.91L3.74.343q.385.019.627.038.25.02.636.039.984.038 1.679.038.54 0 1.717-.038Q9.13.342 9.98.342q1.273 0 2.17.569t.897 1.939q0 .51-.173 1.109-.174.598-.666 1.235-.482.636-1.34 1.128-.599.338-1.09.492-.483.155-1.062.26.02.059.096.232.078.174.097.232.029.058.048.106.077.154.482 1.013.415.858.58 1.244.983 2.093 1.205 2.412.174.231.386.366.222.135.56.241.347.106 1.012.26.077.01.174.03.106.019.154.038.048.01.068.01l-.135.53q-.309-.029-.753-.057-.636-.04-1.283-.04-1.032 0-1.717.059-.463-1.409-1.292-3.357-.126-.3-.328-.791l-.386-.936q-.183-.453-.386-.935-.01-.049-.106-.28-.097-.232-.116-.26-.569 0-1.418-.116l-.202.704q-.087.337-.27.974-.174.627-.357 1.322-.454 1.755-.599 2.218-.057.116-.057.251 0 .232.424.376.434.135 1.119.26l.338.04-.164.568q-.406-.029-1.004-.057-.868-.04-1.697-.04-1.467 0-3.106.097l.144-.569q.126 0 .415-.077.849-.164 1.148-.29.309-.125.453-.366.145-.25.386-1.003.454-1.418 1.12-3.714.674-2.296 1.166-4.138.502-1.843.502-2.045 0-.222-.174-.28-.067-.029-1.64-.395zm3.753.473l-.772 2.508q-.55 1.804-.733 2.47.897.058 1.052.058 1.138 0 2.122-.338.984-.347 1.601-1.07.617-.734.617-1.891 0-1.891-2.19-1.891-.675 0-1.697.154z"
                    aria-label="R" font-size="19.756" />
                <text style="line-height:1.25;" x="59.666" y="31.438" font-size="10.583" transform="translate(-13.562 -3.174)"/>
            </g>
            <g style="line-height:1.25;">
                <path d="M56.972 4.48h-.645l.01-.341q.018-.323.082-1.566.037-.45-.248-.552-.286-.11-1.124-.11h-2.071q-.01.055-.102.35-.092.294-.11.368-.11.405-.34 1.178-.222.774-.378 1.299l-.36 1.252q-.202.736-.34 1.224-1.078 3.886-1.299 4.733-.036.12-.036.322 0 .175.11.23.194.12 1.344.286.415.092.489.092l-.148.543q-.451-.027-1.252-.055-.94-.037-1.52-.037-.92 0-3.112.092l.148-.543q.027 0 .073-.009.056-.018.11-.028l.139-.018q.083-.018.11-.018 1.197-.194 1.418-.36.406-.34 1.013-2.569.065-.276.516-1.712.083-.295.166-.571.092-.286.129-.451l.838-2.9q.423-1.456.764-2.699h-2.072q-.663 0-.985.074-.313.065-.525.322-.212.249-.47.866l-.543 1.307h-.663q.479-1.758.792-3.526.35 0 .635.009.295.01.783.018.488.01 1.225.028 1.675.055 2.578.055.58 0 2.716-.037l3.039-.073q-.35 1.105-.488 1.73-.11.516-.23 1.05-.12.525-.166.746z"
                aria-label="T" font-size="21.167" />
            </g>

        </g>
        <g fill="#0b0ff3" fill-opacity=".9" font-size="14.111">
            <g aria-label="ossdale" style="line-height:1.25;">
                <path d="M10.531 9.375q0-.801.318-1.522t.837-1.26q.52-.537 1.113-.824.598-.287 1.112-.287.617 0 .953.366.342.36.459.825.116.465.116.862 0 .782-.312 1.473-.306.684-.825 1.222-.52.532-1.125.825-.605.287-1.142.287-.783 0-1.143-.61-.36-.612-.36-1.357zm.978-.098q0 .538.22 1.02.22.483.819.483.532 0 .972-.47.44-.471.696-1.229.257-.758.257-1.546 0-.507-.177-1.015-.177-.513-.8-.513-.539 0-.997.544-.452.538-.721 1.32-.269.782-.269 1.406zM19.478 6.948h-.287q-.036-.36-.238-.684-.196-.33-.74-.33-.372 0-.617.214-.244.214-.244.525 0 .14.067.288.067.14.257.354.189.214.525.532.495.476.746.892.256.41.256.825 0 .446-.3.862-.292.41-.806.666-.513.25-1.118.25-.575 0-.917-.152-.336-.147-.648-.385.324-.587.526-1.082l.159.043q.091.397.19.525.164.208.464.343.3.128.599.128.44 0 .702-.232.263-.233.263-.605 0-.251-.195-.569-.19-.318-.746-.892-.507-.544-.678-.825-.171-.281-.171-.605 0-.404.262-.764.263-.36.728-.575.464-.213 1.026-.213.71 0 1.272.354-.043.134-.147.489-.104.354-.19.623zM23.524 6.948h-.287q-.037-.36-.238-.684-.196-.33-.74-.33-.373 0-.617.214-.245.214-.245.525 0 .14.068.288.067.14.256.354.19.214.526.532.495.476.746.892.256.41.256.825 0 .446-.3.862-.293.41-.806.666-.513.25-1.118.25-.575 0-.917-.152-.336-.147-.648-.385.324-.587.526-1.082l.159.043q.091.397.189.525.165.208.465.343.299.128.598.128.44 0 .703-.232.263-.233.263-.605 0-.251-.195-.569-.19-.318-.746-.892-.507-.544-.678-.825-.172-.281-.172-.605 0-.404.263-.764t.727-.575q.465-.213 1.027-.213.71 0 1.271.354-.042.134-.146.489-.104.354-.19.623zM29.226 9.674l.22.263q-1.503 1.405-2.053 1.405-.086 0-.196-.055-.104-.055-.104-.262 0-.068.05-.27.048-.207.103-.415.061-.214.11-.403l.116-.41-.024-.024q-.52.648-1.18 1.247-.66.592-1.173.592-.422 0-.727-.446-.3-.452-.3-1.234 0-.831.324-1.59.324-.757.862-1.338.538-.58 1.185-.916.654-.336 1.296-.336.293 0 .764.128l.385-1.29q.055-.207.128-.403.098-.318.098-.465 0-.17-.201-.17-.239 0-.697.073l.085-.349q.349-.116.55-.177l.49-.159q.28-.091.348-.116.128-.055.311-.14l.355-.16.202.147q-.153.336-.275.666-.239.654-.41 1.168-.171.513-.373 1.143-.201.63-.336 1.07-.483 1.551-.63 2.04-.146.49-.262.923-.11.434-.11.642 0 .196.153.196.152 0 .702-.41zm-.94-3.288q-.539-.33-1.04-.33-.605 0-1.002.416-.562.58-.868 1.405-.306.82-.306 1.583 0 .507.141.8.147.294.373.294.257 0 .58-.269.324-.275.593-.544.52-.562.789-1.16.275-.6.599-1.724.018-.098.14-.471zM35.142 9.674l.202.263q-.367.367-.807.703-.434.336-.77.52-.336.182-.477.182-.287 0-.287-.354 0-.171.098-.562.104-.398.14-.453.056-.22.123-.421l-.025-.025q-.513.654-1.149 1.235-.635.58-1.155.58-.41 0-.709-.397-.3-.403-.3-1.167 0-.782.325-1.552.33-.77.904-1.388.575-.617 1.327-.984.751-.372 1.582-.372.098 0 .593.06.501.062.575.068l.073.147q-.354.733-.666 1.674-.312.941-.501 1.693-.184.752-.184.892 0 .25.153.25.196 0 .8-.476.099-.098.135-.116zm-.886-3.502q-.47-.153-.74-.153-.5 0-.953.312-.452.306-.8.837-.349.526-.55 1.18-.202.654-.202 1.29 0 .482.159.714.165.227.33.227.238 0 .727-.404.495-.403.917-1.039.275-.397.458-.886.184-.495.526-1.668.012-.031.06-.196.056-.165.068-.214zM37.11 3.38l.104-.374.25-.067q.82-.25 1.089-.348.268-.104.739-.336l.159.19q-.086.17-.238.586-.245.672-.502 1.473l-.183.58q-.122.398-.226.728-.104.323-.275.873l-.416 1.376q-.06.183-.146.489-.129.403-.281.94-.147.538-.147.66 0 .166.134.166.153 0 .795-.49.11-.066.17-.128l.24.263q-.545.575-1.223.978t-.917.403q-.134 0-.244-.079-.104-.08-.104-.238 0-.324.587-2.115.091-.275.348-1.118.263-.85.403-1.345.147-.495.324-1.106.184-.617.477-1.626.037-.183.037-.195 0-.202-.251-.202-.196 0-.703.061zM42.421 9.741l.25.349q-1.54 1.252-2.456 1.252-.47 0-.74-.268-.262-.275-.354-.648-.092-.38-.092-.728 0-.812.324-1.576t.88-1.363q.556-.605 1.216-.941.66-.336 1.308-.336.3 0 .538.158.238.153.238.532 0 .593-.446 1.125-.446.525-1.033.788-.476.226-.971.355-.49.122-.966.195 0 .025-.043.318-.036.287-.036.495 0 .422.134.788.14.367.544.367.593 0 1.705-.862zm-2.182-1.54q1.455-.257 1.925-.819.477-.568.477-1.02 0-.416-.385-.416-.422 0-1.02.526-.593.52-.997 1.73z" />
            </g>
            <g aria-label="ravel" style="line-height:1.25;">
                <path d="M52.46 7.187l-.226-.275q1.491-1.43 2.041-1.43.239 0 .239.25 0 .19-.117.605-.116.416-.305.972-.19.55-.312.868-.116.318-.208.538l.025.024q.513-.91.96-1.601.445-.697.745-1.045.306-.349.538-.477.238-.134.5-.134.184 0 .453.128-.195.385-.25.52-.05.128-.214.568h-.263q-.086-.178-.226-.178-.214 0-.507.312-.294.306-.55.679-.251.372-.544.861-.392.636-.569 1.04-.177.396-.434 1.24-.098.348-.165.513-.354 0-.495.012-.14.013-.476.074.103-.33.476-1.498.373-1.167.63-2.01.256-.85.256-.972 0-.214-.152-.214-.098 0-.349.196-.25.195-.324.269zM61.169 9.674l.202.263q-.367.367-.807.703-.434.336-.77.52-.336.182-.477.182-.287 0-.287-.354 0-.171.098-.562.104-.398.14-.453.055-.22.123-.421l-.025-.025q-.513.654-1.149 1.235-.635.58-1.155.58-.41 0-.709-.397-.3-.403-.3-1.167 0-.782.325-1.552.33-.77.904-1.388.575-.617 1.326-.984.752-.372 1.583-.372.098 0 .593.06.501.062.574.068l.074.147q-.355.733-.666 1.674-.312.941-.501 1.693-.184.752-.184.892 0 .25.153.25.196 0 .8-.476.098-.098.135-.116zm-.886-3.502q-.47-.153-.74-.153-.5 0-.953.312-.452.306-.8.837-.349.526-.55 1.18-.202.654-.202 1.29 0 .482.159.714.165.227.33.227.238 0 .727-.404.495-.403.917-1.039.275-.397.458-.886.183-.495.526-1.668.012-.031.06-.196.056-.165.068-.214zM62.3 7.107l-.25-.22q.402-.489.873-.947.47-.458.8-.458.233 0 .355.299.159.464.159 1.632 0 .703-.073 2.151l-.025.422.025.03q.39-.464.647-.776.257-.318.6-.8.348-.483.556-.893.213-.415.213-.727 0-.306-.134-.391-.134-.086-.318-.098l-.049-.11q.275-.244.404-.385.134-.14.3-.354.396.11.525.415.134.3.134.538 0 .544-.354 1.124-.349.575-.984 1.351-.232.281-.642.758-.41.477-.843.947-.428.47-.679.727h-.354q.098-.971.134-1.961.043-.997.043-1.394 0-.5-.049-1.008-.049-.507-.226-.507-.122 0-.422.268-.293.27-.366.367zM70.538 9.741l.25.349q-1.54 1.252-2.456 1.252-.47 0-.74-.268-.263-.275-.354-.648-.092-.38-.092-.728 0-.812.324-1.576t.88-1.363q.556-.605 1.216-.941.66-.336 1.308-.336.3 0 .538.158.238.153.238.532 0 .593-.446 1.125-.446.525-1.033.788-.476.226-.971.355-.49.122-.966.195 0 .025-.043.318-.036.287-.036.495 0 .422.134.788.14.367.544.367.593 0 1.705-.862zm-2.182-1.54q1.455-.257 1.925-.819.477-.568.477-1.02 0-.416-.385-.416-.422 0-1.02.526-.593.52-.997 1.73zM72.928 3.38l.104-.374.25-.067q.819-.25 1.088-.348.269-.104.74-.336l.158.19q-.085.17-.238.586-.244.672-.501 1.473-.055.177-.184.58-.122.398-.226.728-.104.323-.275.873l-.415 1.376q-.061.183-.147.489-.128.403-.281.94-.147.538-.147.66 0 .166.135.166.153 0 .794-.49.11-.066.171-.128l.239.263q-.544.575-1.223.978-.678.403-.916.403-.135 0-.245-.079-.104-.08-.104-.238 0-.324.587-2.115.092-.275.348-1.118.263-.85.404-1.345l.324-1.106q.183-.617.476-1.626.037-.183.037-.195 0-.202-.25-.202-.196 0-.703.061z" />
            </g>
        </g>
</svg>